<svg xmlns:xlink="http://www.w3.org/1999/xlink" version="1.1" class="highcharts-root" style="font-family:&quot;lucida grande&quot;, &quot;lucida sans unicode&quot;, arial, helvetica, sans-serif;font-size:12px;" xmlns="http://www.w3.org/2000/svg" width="700" height="500" viewBox="0 0 700 500"><desc>Created with Highcharts 5.0.12</desc><defs><clipPath id="highcharts-dy6kiot-56"><rect x="0" y="0" width="509" height="392" fill="none"></rect></clipPath></defs><rect fill="#ffffff" class="highcharts-background" x="0" y="0" width="700" height="500" rx="0" ry="0"></rect><rect fill="none" class="highcharts-plot-background" x="70" y="71" width="509" height="392"></rect><g class="highcharts-pane-group"></g><g class="highcharts-plot-lines-0"><path fill="none" stroke="#808080" stroke-width="1" d="M 70 463.5 L 579 463.5"></path></g><g class="highcharts-grid highcharts-xaxis-grid "><path fill="none" class="highcharts-grid-line" d="M 71.5 71 L 71.5 463" opacity="1"></path><path fill="none" class="highcharts-grid-line" d="M 174.5 71 L 174.5 463" opacity="1"></path><path fill="none" class="highcharts-grid-line" d="M 277.5 71 L 277.5 463" opacity="1"></path><path fill="none" class="highcharts-grid-line" d="M 381.5 71 L 381.5 463" opacity="1"></path><path fill="none" class="highcharts-grid-line" d="M 484.5 71 L 484.5 463" opacity="1"></path></g><g class="highcharts-grid highcharts-yaxis-grid "><path fill="none" stroke="#e6e6e6" stroke-width="1" class="highcharts-grid-line" d="M 70 463.5 L 579 463.5" opacity="1"></path><path fill="none" stroke="#e6e6e6" stroke-width="1" class="highcharts-grid-line" d="M 70 398.5 L 579 398.5" opacity="1"></path><path fill="none" stroke="#e6e6e6" stroke-width="1" class="highcharts-grid-line" d="M 70 332.5 L 579 332.5" opacity="1"></path><path fill="none" stroke="#e6e6e6" stroke-width="1" class="highcharts-grid-line" d="M 70 267.5 L 579 267.5" opacity="1"></path><path fill="none" stroke="#e6e6e6" stroke-width="1" class="highcharts-grid-line" d="M 70 202.5 L 579 202.5" opacity="1"></path><path fill="none" stroke="#e6e6e6" stroke-width="1" class="highcharts-grid-line" d="M 70 136.5 L 579 136.5" opacity="1"></path><path fill="none" stroke="#e6e6e6" stroke-width="1" class="highcharts-grid-line" d="M 70 70.5 L 579 70.5" opacity="1"></path></g><rect fill="none" class="highcharts-plot-border" x="70" y="71" width="509" height="392"></rect><g class="highcharts-axis highcharts-xaxis "><path fill="none" class="highcharts-tick" stroke="#ccd6eb" stroke-width="1" d="M 71.5 463 L 71.5 473" opacity="1"></path><path fill="none" class="highcharts-tick" stroke="#ccd6eb" stroke-width="1" d="M 174.5 463 L 174.5 473" opacity="1"></path><path fill="none" class="highcharts-tick" stroke="#ccd6eb" stroke-width="1" d="M 277.5 463 L 277.5 473" opacity="1"></path><path fill="none" class="highcharts-tick" stroke="#ccd6eb" stroke-width="1" d="M 381.5 463 L 381.5 473" opacity="1"></path><path fill="none" class="highcharts-tick" stroke="#ccd6eb" stroke-width="1" d="M 484.5 463 L 484.5 473" opacity="1"></path><path fill="none" class="highcharts-axis-line" stroke="#ccd6eb" stroke-width="1" d="M 70 463.5 L 579 463.5"></path></g><g class="highcharts-axis highcharts-yaxis "><text x="27.609375" text-anchor="middle" transform="translate(0,0) rotate(270 27.609375 267)" class="highcharts-axis-title" style="color:#666666;fill:#666666;" y="267"><tspan>边界层高度 (Km)</tspan></text><path fill="none" class="highcharts-axis-line" d="M 70 71 L 70 463"></path></g><g class="highcharts-series-group"><g class="highcharts-series highcharts-series-0 highcharts-line-series highcharts-color-0 " transform="translate(70,71) scale(1 1)" clip-path="url(#highcharts-dy6kiot-56)"><path fill="none" d="M 1.8442028985507 220.5 L 5.5326086956522 323.4 L 9.2210144927536 140.14000000000001 L 12.909420289855 230.3 L 16.597826086957 226.38 L 20.286231884058 136.22000000000003 L 23.974637681159 129.36000000000007 L 27.663043478261 185.22 L 31.351449275362 225.40000000000003 L 35.039855072464 257.74 L 38.728260869565 270.48 L 42.416666666667 270.48 L 46.105072463768 269.5 L 49.79347826087 269.5 L 53.481884057971 272.44 L 57.170289855072 228.34000000000003 L 60.858695652174 273.42 L 64.547101449275 127.40000000000003 L 68.235507246377 149.94000000000003 L 71.923913043478 283.22 L 75.61231884058 326.34000000000003 L 79.300724637681 94.08000000000004 L 82.989130434783 97.02000000000004 L 86.677536231884 85.25999999999999 L 90.365942028986 67.62 L 94.054347826087 79.38 L 97.742753623188 79.38 L 101.43115942029 119.56 L 105.11956521739 96.04000000000002 L 108.80797101449 304.78000000000003 L 112.49637681159 294.98 L 116.1847826087 73.5 L 119.8731884058 297.92 L 123.5615942029 292.04 L 127.25 319.48 L 130.9384057971 324.38 L 134.6268115942 326.34000000000003 L 138.3152173913 327.32 L 142.00362318841 318.5 L 145.69202898551 306.74 L 149.38043478261 309.68 L 153.06884057971 316.54 L 156.75724637681 187.18000000000004 L 160.44565217391 71.54000000000002 L 164.13405797101 84.28000000000003 L 167.82246376812 77.42000000000002 L 171.51086956522 79.38 L 175.19927536232 146.02 L 178.88768115942 79.38 L 182.57608695652 122.5 L 186.26449275362 248.92000000000002 L 189.95289855072 99.96000000000004 L 193.64130434783 123.48000000000002 L 197.32971014493 89.18000000000006 L 201.01811594203 267.54 L 204.70652173913 322.42 L 208.39492753623 108.78000000000003 L 212.08333333333 264.6 L 215.77173913043 117.60000000000002 L 219.46014492754 127.40000000000003 L 223.14855072464 100.94 L 226.83695652174 66.63999999999999 L 230.52536231884 327.32 L 234.21376811594 74.48000000000002 L 237.90217391304 74.48000000000002 L 241.59057971014 81.34000000000003 L 245.27898550725 70.56 L 248.96739130435 327.32 L 252.65579710145 72.52000000000004 L 256.34420289855 125.44 L 260.03260869565 110.74000000000007 L 263.72101449275 324.38 L 267.40942028986 322.42 L 271.09782608696 306.74 L 274.78623188406 314.58 L 278.47463768116 267.54 L 282.16304347826 313.6 L 285.85144927536 309.68 L 289.53985507246 327.32 L 293.22826086957 96.04000000000002 L 296.91666666667 69.58000000000004 L 300.60507246377 105.84000000000003 L 304.29347826087 100.94 L 307.98188405797 126.42000000000002 L 311.67028985507 72.52000000000004 L 315.35869565217 89.18000000000006 L 319.04710144928 73.5 L 322.73550724638 66.63999999999999 L 326.42391304348 77.42000000000002 L 330.11231884058 92.12 L 333.80072463768 80.36000000000007 L 337.48913043478 76.44 L 341.17753623188 75.46000000000004 L 344.86594202899 118.58000000000004 L 348.55434782609 93.10000000000002 L 352.24275362319 94.08000000000004 L 355.93115942029 118.58000000000004 L 359.61956521739 83.30000000000007 L 363.30797101449 82.32 L 366.99637681159 268.52 L 370.6847826087 327.32 L 374.3731884058 327.32 L 378.0615942029 327.32 L 381.75 323.4 L 385.4384057971 319.48 L 389.1268115942 320.46000000000004 L 392.8152173913 323.4 L 396.50362318841 314.58 L 400.19202898551 322.42 L 403.88043478261 320.46000000000004 L 407.56884057971 103.88 L 411.25724637681 77.42000000000002 L 414.94565217391 83.30000000000007 L 418.63405797101 322.42 L 422.32246376812 326.34000000000003 L 426.01086956522 70.56 L 429.69927536232 91.13999999999999 L 433.38768115942 78.40000000000003 L 437.07608695652 123.48000000000002 L 440.76449275362 325.36 L 444.45289855072 83.30000000000007 L 448.14130434783 84.28000000000003 L 451.82971014493 88.19999999999999 L 455.51811594203 327.32 L 459.20652173913 70.56 L 462.89492753623 126.42000000000002 L 466.58333333333 90.16000000000003 L 470.27173913043 76.44 L 473.96014492754 69.58000000000004 L 477.64855072464 78.40000000000003 L 481.33695652174 310.65999999999997 L 485.02536231884 314.58 L 488.71376811594 69.58000000000004 L 492.40217391304 320.46000000000004 L 496.09057971014 135.24 L 499.77898550725 85.25999999999999 L 503.46739130435 327.32 L 507.15579710145 274.4" class="highcharts-graph" stroke="#7cb5ec" stroke-width="2" stroke-linejoin="round" stroke-linecap="round"></path></g><g class="highcharts-markers highcharts-series-0 highcharts-line-series highcharts-color-0 " transform="translate(70,71) scale(1 1)" clip-path="none"></g></g><text x="330" text-anchor="middle" class="highcharts-title" style="color:#333333;font-size:18px;fill:#333333;" y="24"><tspan>激光雷达</tspan></text><text x="330" text-anchor="middle" class="highcharts-subtitle" style="color:#666666;fill:#666666;" y="52"><tspan>边界层高度</tspan></text><g class="highcharts-legend" transform="translate(591,233)"><rect fill="none" class="highcharts-legend-box" rx="0" ry="0" x="0" y="0" width="99" height="29" visibility="visible"></rect><g><g><g class="highcharts-legend-item highcharts-line-series highcharts-color-0 highcharts-series-0" transform="translate(8,3)"><path fill="none" d="M 0 11 L 16 11" class="highcharts-graph" stroke="#7cb5ec" stroke-width="2"></path><path fill="#7cb5ec" d="M 12 11 A 4 4 0 1 1 11.999998000000167 10.996000000666664 Z" class="highcharts-point"></path><text x="21" style="color:#333333;font-size:12px;font-weight:bold;cursor:pointer;fill:#333333;" text-anchor="start" y="15"><tspan>边界层高度</tspan></text></g></g></g></g><g class="highcharts-axis-labels highcharts-xaxis-labels "><text x="71.84420289855072" style="color:#666666;cursor:default;font-size:11px;fill:#666666;" text-anchor="middle" transform="translate(0,0)" y="482" opacity="1"><tspan>09-11 00:04:25</tspan></text><text x="175.1195652173913" style="color:#666666;cursor:default;font-size:11px;fill:#666666;" text-anchor="middle" transform="translate(0,0)" y="482" opacity="1"><tspan>09-11 02:37:07</tspan></text><text x="278.3949275362319" style="color:#666666;cursor:default;font-size:11px;fill:#666666;" text-anchor="middle" transform="translate(0,0)" y="482" opacity="1"><tspan>09-11 05:09:51</tspan></text><text x="381.6702898550725" style="color:#666666;cursor:default;font-size:11px;fill:#666666;" text-anchor="middle" transform="translate(0,0)" y="482" opacity="1"><tspan>09-11 07:42:32</tspan></text><text x="484.94565217391306" style="color:#666666;cursor:default;font-size:11px;fill:#666666;" text-anchor="middle" transform="translate(0,0)" y="482" opacity="1"><tspan>09-11 10:10:24</tspan></text></g><g class="highcharts-axis-labels highcharts-yaxis-labels "><text x="55" style="color:#666666;cursor:default;font-size:11px;fill:#666666;" text-anchor="end" transform="translate(0,0)" y="467" opacity="1"><tspan>0</tspan></text><text x="55" style="color:#666666;cursor:default;font-size:11px;fill:#666666;" text-anchor="end" transform="translate(0,0)" y="402" opacity="1"><tspan>0.5</tspan></text><text x="55" style="color:#666666;cursor:default;font-size:11px;fill:#666666;" text-anchor="end" transform="translate(0,0)" y="336" opacity="1"><tspan>1</tspan></text><text x="55" style="color:#666666;cursor:default;font-size:11px;fill:#666666;" text-anchor="end" transform="translate(0,0)" y="271" opacity="1"><tspan>1.5</tspan></text><text x="55" style="color:#666666;cursor:default;font-size:11px;fill:#666666;" text-anchor="end" transform="translate(0,0)" y="206" opacity="1"><tspan>2</tspan></text><text x="55" style="color:#666666;cursor:default;font-size:11px;fill:#666666;" text-anchor="end" transform="translate(0,0)" y="140" opacity="1"><tspan>2.5</tspan></text><text x="55" style="color:#666666;cursor:default;font-size:11px;fill:#666666;" text-anchor="end" transform="translate(0,0)" y="75" opacity="1"><tspan>3</tspan></text></g><text x="690" class="highcharts-credits" text-anchor="end" style="cursor:pointer;color:#999999;font-size:9px;fill:#999999;" y="495">Highcharts.com.cn</text></svg>
