<svg xmlns:xlink="http://www.w3.org/1999/xlink" version="1.1" class="highcharts-root" style="font-family:&quot;lucida grande&quot;, &quot;lucida sans unicode&quot;, arial, helvetica, sans-serif;font-size:12px;" xmlns="http://www.w3.org/2000/svg" width="700" height="500" viewBox="0 0 700 500"><desc>Created with Highcharts 5.0.12</desc><defs><clipPath id="highcharts-b2cqrf5-40"><rect x="0" y="0" width="505" height="384" fill="none"></rect></clipPath></defs><rect fill="#ffffff" class="highcharts-background" x="0" y="0" width="700" height="500" rx="0" ry="0"></rect><rect fill="none" class="highcharts-plot-background" x="71" y="63" width="505" height="384"></rect><g class="highcharts-pane-group"></g><g class="highcharts-plot-lines-0"><path fill="none" stroke="#808080" stroke-width="1" d="M 71 447.5 L 576 447.5"></path></g><g class="highcharts-grid highcharts-xaxis-grid "><path fill="none" class="highcharts-grid-line" d="M 72.5 63 L 72.5 447" opacity="1"></path><path fill="none" class="highcharts-grid-line" d="M 174.5 63 L 174.5 447" opacity="1"></path><path fill="none" class="highcharts-grid-line" d="M 277.5 63 L 277.5 447" opacity="1"></path><path fill="none" class="highcharts-grid-line" d="M 379.5 63 L 379.5 447" opacity="1"></path><path fill="none" class="highcharts-grid-line" d="M 482.5 63 L 482.5 447" opacity="1"></path></g><g class="highcharts-grid highcharts-yaxis-grid "><path fill="none" stroke="#e6e6e6" stroke-width="1" class="highcharts-grid-line" d="M 71 447.5 L 576 447.5" opacity="1"></path><path fill="none" stroke="#e6e6e6" stroke-width="1" class="highcharts-grid-line" d="M 71 383.5 L 576 383.5" opacity="1"></path><path fill="none" stroke="#e6e6e6" stroke-width="1" class="highcharts-grid-line" d="M 71 319.5 L 576 319.5" opacity="1"></path><path fill="none" stroke="#e6e6e6" stroke-width="1" class="highcharts-grid-line" d="M 71 255.5 L 576 255.5" opacity="1"></path><path fill="none" stroke="#e6e6e6" stroke-width="1" class="highcharts-grid-line" d="M 71 191.5 L 576 191.5" opacity="1"></path><path fill="none" stroke="#e6e6e6" stroke-width="1" class="highcharts-grid-line" d="M 71 127.5 L 576 127.5" opacity="1"></path><path fill="none" stroke="#e6e6e6" stroke-width="1" class="highcharts-grid-line" d="M 71 62.5 L 576 62.5" opacity="1"></path></g><rect fill="none" class="highcharts-plot-border" x="71" y="63" width="505" height="384"></rect><g class="highcharts-axis highcharts-xaxis "><path fill="none" class="highcharts-tick" stroke="#ccd6eb" stroke-width="1" d="M 72.5 447 L 72.5 457" opacity="1"></path><path fill="none" class="highcharts-tick" stroke="#ccd6eb" stroke-width="1" d="M 174.5 447 L 174.5 457" opacity="1"></path><path fill="none" class="highcharts-tick" stroke="#ccd6eb" stroke-width="1" d="M 277.5 447 L 277.5 457" opacity="1"></path><path fill="none" class="highcharts-tick" stroke="#ccd6eb" stroke-width="1" d="M 379.5 447 L 379.5 457" opacity="1"></path><path fill="none" class="highcharts-tick" stroke="#ccd6eb" stroke-width="1" d="M 482.5 447 L 482.5 457" opacity="1"></path><path fill="none" class="highcharts-axis-line" stroke="#ccd6eb" stroke-width="1" d="M 71 447.5 L 576 447.5"></path></g><g class="highcharts-axis highcharts-yaxis "><text x="26" text-anchor="middle" transform="translate(0,0) rotate(270 26 255)" class="highcharts-axis-title" style="color:#666666;fill:#666666;" y="255"><tspan>边界层高度 (Km)</tspan></text><path fill="none" class="highcharts-axis-line" d="M 71 63 L 71 447"></path></g><g class="highcharts-series-group"><g class="highcharts-series highcharts-series-0 highcharts-line-series highcharts-color-0 " transform="translate(71,63) scale(1 1)" clip-path="url(#highcharts-b2cqrf5-40)"><path fill="none" d="M 1.8297101449275 216 L 5.4891304347826 316.8 L 9.1485507246377 137.28 L 12.807971014493 225.6 L 16.467391304348 221.76 L 20.126811594203 133.44 L 23.786231884058 126.72000000000003 L 27.445652173913 181.44 L 31.105072463768 220.8 L 34.764492753623 252.48 L 38.423913043478 264.96 L 42.083333333333 264.96 L 45.742753623188 264 L 49.402173913043 264 L 53.061594202899 266.88 L 56.721014492754 223.68 L 60.380434782609 267.84000000000003 L 64.039855072464 124.80000000000001 L 67.699275362319 146.88 L 71.358695652174 277.44 L 75.018115942029 319.68 L 78.677536231884 92.16000000000003 L 82.336956521739 95.04000000000002 L 85.996376811594 83.51999999999998 L 89.655797101449 66.24000000000001 L 93.315217391304 77.75999999999999 L 96.974637681159 77.75999999999999 L 100.63405797101 117.12 L 104.29347826087 94.07999999999998 L 107.95289855072 298.56 L 111.61231884058 288.96 L 115.27173913043 72 L 118.93115942029 291.84000000000003 L 122.59057971014 286.08 L 126.25 312.96 L 129.90942028986 317.76 L 133.56884057971 319.68 L 137.22826086957 320.64 L 140.88768115942 312 L 144.54710144928 300.48 L 148.20652173913 303.36 L 151.86594202899 310.08 L 155.52536231884 183.36 L 159.1847826087 70.07999999999998 L 162.84420289855 82.56 L 166.50362318841 75.83999999999997 L 170.16304347826 77.75999999999999 L 173.82246376812 143.04 L 177.48188405797 77.75999999999999 L 181.14130434783 120 L 184.80072463768 243.84 L 188.46014492754 97.92000000000002 L 192.11956521739 120.95999999999998 L 195.77898550725 87.36000000000001 L 199.4384057971 262.08 L 203.09782608696 315.84000000000003 L 206.75724637681 106.56 L 210.41666666667 259.2 L 214.07608695652 115.19999999999999 L 217.73550724638 124.80000000000001 L 221.39492753623 98.88 L 225.05434782609 65.27999999999997 L 228.71376811594 320.64 L 232.3731884058 72.95999999999998 L 236.03260869565 72.95999999999998 L 239.69202898551 79.68 L 243.35144927536 69.12 L 247.01086956522 320.64 L 250.67028985507 71.04000000000002 L 254.32971014493 122.88 L 257.98913043478 108.48000000000002 L 261.64855072464 317.76 L 265.30797101449 315.84000000000003 L 268.96739130435 300.48 L 272.6268115942 308.15999999999997 L 276.28623188406 262.08 L 279.94565217391 307.2 L 283.60507246377 303.36 L 287.26449275362 320.64 L 290.92391304348 94.07999999999998 L 294.58333333333 68.16000000000003 L 298.24275362319 103.68 L 301.90217391304 98.88 L 305.5615942029 123.83999999999997 L 309.22101449275 71.04000000000002 L 312.88043478261 87.36000000000001 L 316.53985507246 72 L 320.19927536232 65.27999999999997 L 323.85869565217 75.83999999999997 L 327.51811594203 90.24000000000001 L 331.17753623188 78.72000000000003 L 334.83695652174 74.88 L 338.49637681159 73.92000000000002 L 342.15579710145 116.16000000000003 L 345.8152173913 91.19999999999999 L 349.47463768116 92.16000000000003 L 353.13405797101 116.16000000000003 L 356.79347826087 81.60000000000002 L 360.45289855072 80.63999999999999 L 364.11231884058 263.04 L 367.77173913043 320.64 L 371.43115942029 320.64 L 375.09057971014 320.64 L 378.75 316.8 L 382.40942028986 312.96 L 386.06884057971 313.92 L 389.72826086957 316.8 L 393.38768115942 308.15999999999997 L 397.04710144928 315.84000000000003 L 400.70652173913 313.92 L 404.36594202899 101.75999999999999 L 408.02536231884 75.83999999999997 L 411.6847826087 81.60000000000002 L 415.34420289855 315.84000000000003 L 419.00362318841 319.68 L 422.66304347826 69.12 L 426.32246376812 89.27999999999997 L 429.98188405797 76.80000000000001 L 433.64130434783 120.95999999999998 L 437.30072463768 318.72 L 440.96014492754 81.60000000000002 L 444.61956521739 82.56 L 448.27898550725 86.39999999999998 L 451.9384057971 320.64 L 455.59782608696 69.12 L 459.25724637681 123.83999999999997 L 462.91666666667 88.32 L 466.57608695652 74.88 L 470.23550724638 68.16000000000003 L 473.89492753623 76.80000000000001 L 477.55434782609 304.32 L 481.21376811594 308.15999999999997 L 484.8731884058 68.16000000000003 L 488.53260869565 313.92 L 492.19202898551 132.48 L 495.85144927536 83.51999999999998 L 499.51086956522 320.64 L 503.17028985507 268.8" class="highcharts-graph" stroke="#7cb5ec" stroke-width="2" stroke-linejoin="round" stroke-linecap="round"></path></g><g class="highcharts-markers highcharts-series-0 highcharts-line-series highcharts-color-0 " transform="translate(71,63) scale(1 1)" clip-path="none"></g></g><text x="330" text-anchor="middle" class="highcharts-title" style="color:#333333;font-size:18px;fill:#333333;" y="24"><tspan>激光雷达</tspan></text><text x="330" text-anchor="middle" class="highcharts-subtitle" style="color:#666666;fill:#666666;" y="46"><tspan>边界层高度</tspan></text><g class="highcharts-legend" transform="translate(588,234)"><rect fill="none" class="highcharts-legend-box" rx="0" ry="0" x="0" y="0" width="102" height="27" visibility="visible"></rect><g><g><g class="highcharts-legend-item highcharts-line-series highcharts-color-0 highcharts-series-0" transform="translate(8,3)"><path fill="none" d="M 0 11 L 16 11" class="highcharts-graph" stroke="#7cb5ec" stroke-width="2"></path><path fill="#7cb5ec" d="M 12 11 A 4 4 0 1 1 11.999998000000167 10.996000000666664 Z" class="highcharts-point"></path><text x="21" style="color:#333333;font-size:12px;font-weight:bold;cursor:pointer;fill:#333333;" text-anchor="start" y="15"><tspan>边界层高度</tspan></text></g></g></g></g><g class="highcharts-axis-labels highcharts-xaxis-labels "><text x="72.82971014492753" style="color:#666666;cursor:default;font-size:11px;fill:#666666;" text-anchor="middle" transform="translate(0,0)" y="466" opacity="1"><tspan>09-11</tspan><tspan dy="14" x="72.82971014492753">00:04:25</tspan><title>09-11 00:04:25</title></text><text x="175.29347826086956" style="color:#666666;cursor:default;font-size:11px;fill:#666666;" text-anchor="middle" transform="translate(0,0)" y="466" opacity="1"><tspan>09-11</tspan><tspan dy="14" x="175.29347826086956">02:37:07</tspan><title>09-11 02:37:07</title></text><text x="277.7572463768116" style="color:#666666;cursor:default;font-size:11px;fill:#666666;" text-anchor="middle" transform="translate(0,0)" y="466" opacity="1"><tspan>09-11</tspan><tspan dy="14" x="277.7572463768116">05:09:51</tspan><title>09-11 05:09:51</title></text><text x="380.2210144927536" style="color:#666666;cursor:default;font-size:11px;fill:#666666;" text-anchor="middle" transform="translate(0,0)" y="466" opacity="1"><tspan>09-11</tspan><tspan dy="14" x="380.2210144927536">07:42:32</tspan><title>09-11 07:42:32</title></text><text x="482.6847826086957" style="color:#666666;cursor:default;font-size:11px;fill:#666666;" text-anchor="middle" transform="translate(0,0)" y="466" opacity="1"><tspan>09-11</tspan><tspan dy="14" x="482.6847826086957">10:10:24</tspan><title>09-11 10:10:24</title></text></g><g class="highcharts-axis-labels highcharts-yaxis-labels "><text x="56" style="color:#666666;cursor:default;font-size:11px;fill:#666666;" text-anchor="end" transform="translate(0,0)" y="450" opacity="1"><tspan>0</tspan></text><text x="56" style="color:#666666;cursor:default;font-size:11px;fill:#666666;" text-anchor="end" transform="translate(0,0)" y="386" opacity="1"><tspan>0.5</tspan></text><text x="56" style="color:#666666;cursor:default;font-size:11px;fill:#666666;" text-anchor="end" transform="translate(0,0)" y="322" opacity="1"><tspan>1</tspan></text><text x="56" style="color:#666666;cursor:default;font-size:11px;fill:#666666;" text-anchor="end" transform="translate(0,0)" y="258" opacity="1"><tspan>1.5</tspan></text><text x="56" style="color:#666666;cursor:default;font-size:11px;fill:#666666;" text-anchor="end" transform="translate(0,0)" y="194" opacity="1"><tspan>2</tspan></text><text x="56" style="color:#666666;cursor:default;font-size:11px;fill:#666666;" text-anchor="end" transform="translate(0,0)" y="130" opacity="1"><tspan>2.5</tspan></text><text x="56" style="color:#666666;cursor:default;font-size:11px;fill:#666666;" text-anchor="end" transform="translate(0,0)" y="66" opacity="1"><tspan>3</tspan></text></g><text x="690" class="highcharts-credits" text-anchor="end" style="cursor:pointer;color:#999999;font-size:9px;fill:#999999;" y="495">Highcharts.com.cn</text></svg>
